<svg width="73" height="38" viewBox="0 0 73 38" fill="none" xmlns="http://www.w3.org/2000/svg">
<path d="M42 1C70.4 16.6 53.8333 31.5 42 37" stroke="#61C9A8"/>
<path d="M49 1C77.4 16.6 60.8333 31.5 49 37" stroke="#61C9A8" stroke-opacity="0.6"/>
<path d="M56 1C84.4 16.6 67.8333 31.5 56 37" stroke="#61C9A8" stroke-opacity="0.2"/>
<path d="M4.25 19.1719V22.1406C4.25 22.7135 4.28385 23.0755 4.35156 23.2266C4.42448 23.3724 4.54948 23.4896 4.72656 23.5781C4.90365 23.6667 5.23438 23.7109 5.71875 23.7109V24H0.296875V23.7109C0.786458 23.7109 1.11719 23.6667 1.28906 23.5781C1.46615 23.4844 1.58854 23.3646 1.65625 23.2188C1.72917 23.0729 1.76562 22.7135 1.76562 22.1406V15.2656C1.76562 14.6927 1.72917 14.3333 1.65625 14.1875C1.58854 14.0365 1.46615 13.9167 1.28906 13.8281C1.11198 13.7396 0.78125 13.6953 0.296875 13.6953V13.4062H5.21875C6.5 13.4062 7.4375 13.4948 8.03125 13.6719C8.625 13.849 9.10938 14.1771 9.48438 14.6562C9.85938 15.1302 10.0469 15.6875 10.0469 16.3281C10.0469 17.1094 9.76562 17.7552 9.20312 18.2656C8.84375 18.5885 8.34115 18.8307 7.69531 18.9922L10.2422 22.5781C10.5755 23.0417 10.8125 23.3307 10.9531 23.4453C11.1667 23.6068 11.4141 23.6953 11.6953 23.7109V24H8.35938L4.94531 19.1719H4.25ZM4.25 13.9766V18.6172H4.69531C5.41927 18.6172 5.96094 18.5521 6.32031 18.4219C6.67969 18.2865 6.96094 18.0469 7.16406 17.7031C7.3724 17.3542 7.47656 16.901 7.47656 16.3438C7.47656 15.5365 7.28646 14.9401 6.90625 14.5547C6.53125 14.1693 5.92448 13.9766 5.08594 13.9766H4.25ZM17.4219 23.7109V24H11.8828V23.7109H12.2344C12.5417 23.7109 12.7891 23.6562 12.9766 23.5469C13.112 23.474 13.2161 23.349 13.2891 23.1719C13.3464 23.0469 13.375 22.7188 13.375 22.1875V15.2188C13.375 14.6771 13.3464 14.3385 13.2891 14.2031C13.2318 14.0677 13.1146 13.9505 12.9375 13.8516C12.7656 13.7474 12.5312 13.6953 12.2344 13.6953H11.8828V13.4062H17.4219V13.6953H17.0703C16.763 13.6953 16.5156 13.75 16.3281 13.8594C16.1927 13.9323 16.0859 14.0573 16.0078 14.2344C15.9505 14.3594 15.9219 14.6875 15.9219 15.2188V22.1875C15.9219 22.7292 15.9505 23.0677 16.0078 23.2031C16.0703 23.3385 16.1875 23.4583 16.3594 23.5625C16.5365 23.6615 16.7734 23.7109 17.0703 23.7109H17.4219ZM25.4219 20.3906L28.2969 13.4062H32.6094V13.6953H32.2656C31.9531 13.6953 31.7031 13.75 31.5156 13.8594C31.3854 13.9323 31.2812 14.0547 31.2031 14.2266C31.1458 14.3516 31.1172 14.6771 31.1172 15.2031V22.1875C31.1172 22.7292 31.1458 23.0677 31.2031 23.2031C31.2604 23.3385 31.3776 23.4583 31.5547 23.5625C31.7318 23.6615 31.9688 23.7109 32.2656 23.7109H32.6094V24H27.0781V23.7109H27.4219C27.7344 23.7109 27.9844 23.6562 28.1719 23.5469C28.3021 23.474 28.4062 23.349 28.4844 23.1719C28.5417 23.0469 28.5703 22.7188 28.5703 22.1875V14.3359L24.5078 24H24.3203L20.1953 14.4062V21.8672C20.1953 22.388 20.2083 22.7083 20.2344 22.8281C20.3021 23.0885 20.4479 23.3021 20.6719 23.4688C20.901 23.6302 21.2578 23.7109 21.7422 23.7109V24H18.1172V23.7109H18.2266C18.4609 23.7161 18.6797 23.6797 18.8828 23.6016C19.0859 23.5182 19.2396 23.4089 19.3438 23.2734C19.4479 23.138 19.5286 22.9479 19.5859 22.7031C19.5964 22.6458 19.6016 22.3802 19.6016 21.9062V15.2031C19.6016 14.6667 19.5729 14.3333 19.5156 14.2031C19.4583 14.0677 19.3411 13.9505 19.1641 13.8516C18.987 13.7474 18.75 13.6953 18.4531 13.6953H18.1172V13.4062H22.4453L25.4219 20.3906ZM37.2656 14.0156V18.3281H37.4766C38.1484 18.3281 38.6354 18.1172 38.9375 17.6953C39.2396 17.2734 39.4323 16.651 39.5156 15.8281H39.8125V21.375H39.5156C39.4531 20.7708 39.3203 20.276 39.1172 19.8906C38.9193 19.5052 38.6875 19.2474 38.4219 19.1172C38.1562 18.9818 37.7708 18.9141 37.2656 18.9141V21.8984C37.2656 22.4818 37.2891 22.8385 37.3359 22.9688C37.388 23.099 37.4818 23.2057 37.6172 23.2891C37.7526 23.3724 37.9714 23.4141 38.2734 23.4141H38.9062C39.8958 23.4141 40.6875 23.1849 41.2812 22.7266C41.8802 22.2682 42.3099 21.5703 42.5703 20.6328H42.8594L42.3828 24H33.2266V23.7109H33.5781C33.8854 23.7109 34.1328 23.6562 34.3203 23.5469C34.4557 23.474 34.5599 23.349 34.6328 23.1719C34.6901 23.0469 34.7188 22.7188 34.7188 22.1875V15.2188C34.7188 14.7396 34.7057 14.4453 34.6797 14.3359C34.6276 14.1536 34.5312 14.013 34.3906 13.9141C34.1927 13.7682 33.9219 13.6953 33.5781 13.6953H33.2266V13.4062H42.0938V16.5391H41.7969C41.6458 15.7734 41.4323 15.224 41.1562 14.8906C40.8854 14.5573 40.5 14.3125 40 14.1562C39.7083 14.0625 39.1615 14.0156 38.3594 14.0156H37.2656Z" fill="#FFEEDB"/>
</svg>
